<?xml version="1.0" standalone="no"?>
<!DOCTYPE svg PUBLIC "-//W3C//DTD SVG 20010904//EN"
 "http://www.w3.org/TR/2001/REC-SVG-20010904/DTD/svg10.dtd">
<svg version="1.0" xmlns="http://www.w3.org/2000/svg"
 width="384.000000pt" height="384.000000pt" viewBox="0 0 384.000000 384.000000"
 preserveAspectRatio="xMidYMid meet">
<metadata>
Created by potrace 1.14, written by Peter Selinger 2001-2017
</metadata>
<g transform="translate(0.000000,384.000000) scale(0.100000,-0.100000)"
fill="#000000" stroke="none">
<path d="M1957 3756 c-4 -9 -14 -12 -26 -9 -12 3 -27 -2 -37 -12 -12 -11 -23
-14 -38 -9 -12 5 -57 7 -101 6 -57 -1 -76 1 -65 9 11 7 1 8 -35 3 -79 -10
-192 -37 -170 -41 60 -11 67 -14 61 -30 -5 -11 -2 -14 11 -8 39 15 74 17 88 5
8 -7 25 -10 40 -6 17 4 25 2 25 -6 0 -11 2 -11 8 0 8 12 26 13 182 11 30 -1
72 -1 93 0 21 1 44 -3 51 -9 8 -5 20 -8 28 -5 8 3 25 1 39 -4 18 -7 20 -10 6
-10 -25 -1 -17 -23 14 -38 13 -7 20 -13 16 -13 -5 0 -1 -7 7 -16 9 -8 16 -24
16 -34 0 -11 10 -29 23 -41 l22 -22 -22 6 c-13 3 -23 1 -23 -4 0 -5 7 -9 15
-9 37 0 7 -33 -39 -44 -16 -4 -41 -20 -57 -37 -15 -16 -37 -29 -48 -29 -12 0
-24 -8 -27 -17 -3 -10 -9 -25 -14 -34 -5 -9 -12 -33 -15 -53 -5 -26 -12 -36
-26 -36 -10 0 -21 5 -24 10 -4 6 -27 8 -58 4 -46 -6 -50 -5 -34 8 11 8 16 20
12 30 -11 28 -95 33 -95 5 0 -6 -7 -19 -17 -29 -14 -16 -15 -18 0 -18 9 0 19
5 22 10 7 12 26 14 24 3 -4 -23 2 -43 11 -38 17 10 11 -7 -7 -22 -17 -14 -17
-14 2 -7 49 18 108 -3 130 -46 l16 -31 -25 16 c-24 16 -26 16 -32 0 -4 -9 -7
-25 -8 -34 -1 -10 -18 -32 -39 -50 -29 -26 -47 -34 -85 -36 -79 -4 -87 -5 -77
-13 16 -11 15 -41 -1 -35 -16 6 -19 -13 -3 -22 6 -4 14 -17 19 -29 7 -17 9
-17 9 -3 1 9 5 17 10 17 5 0 6 -12 2 -27 -5 -17 -14 -28 -24 -27 -9 0 -37 1
-62 2 l-46 2 32 48 c18 26 37 50 43 54 6 4 7 10 3 15 -4 4 -23 -1 -42 -11 -28
-16 -47 -18 -104 -12 -60 5 -76 3 -111 -15 -22 -12 -40 -22 -40 -24 0 -2 19 1
42 6 47 11 69 0 48 -26 -11 -13 -8 -15 19 -15 18 0 34 -6 37 -14 3 -8 17 -17
30 -20 14 -4 22 -11 18 -17 -3 -6 -13 -8 -22 -4 -8 3 -19 0 -23 -6 -5 -8 -14
-5 -30 10 -27 25 -45 27 -66 5 -13 -12 -18 -13 -24 -3 -4 7 -6 16 -3 20 2 4
-8 9 -22 12 -19 3 -40 -4 -72 -26 -25 -17 -47 -26 -49 -21 -2 5 -19 8 -38 6
-34 -4 -65 10 -65 30 0 6 7 4 17 -3 11 -10 17 -11 20 -3 2 7 13 9 25 6 17 -4
20 -2 15 12 -4 10 -7 20 -7 22 0 9 -37 3 -48 -8 -9 -9 -12 -9 -12 0 0 20 -17
14 -23 -8 -3 -13 -11 -18 -20 -14 -17 6 -32 -12 -17 -21 17 -11 11 -36 -7 -34
-10 2 -29 -3 -43 -11 -14 -8 -48 -14 -77 -14 -46 -1 -50 1 -37 15 8 8 14 21
14 27 0 7 4 12 9 12 5 0 16 3 25 6 12 5 16 -1 16 -22 l1 -29 29 35 c34 40 37
50 14 50 -11 0 -14 6 -9 20 6 18 3 19 -24 14 -32 -7 -45 11 -16 22 8 4 13 10
10 14 -2 4 6 19 19 33 l24 26 -27 3 c-37 4 -95 -17 -99 -36 -3 -13 2 -15 22
-10 14 3 26 3 26 -1 0 -14 -54 -115 -61 -115 -10 0 -32 62 -30 85 2 29 23 98
34 112 5 7 6 17 2 23 -8 13 -45 -16 -45 -35 0 -20 -30 -40 -61 -41 -28 -2 -38
9 -20 20 5 3 7 15 4 25 -4 17 -9 14 -40 -19 -23 -26 -40 -37 -50 -33 -10 4
-14 2 -10 -4 4 -6 0 -13 -8 -17 -28 -11 -8 42 32 81 13 13 20 29 17 38 -4 8
-2 15 3 15 5 0 8 20 8 45 0 50 -8 57 -26 23 -25 -47 -19 3 7 54 l26 53 -30
-33 c-19 -21 -31 -29 -34 -21 -2 7 2 20 9 28 7 9 28 34 46 56 l32 40 -30 -19
c-40 -25 -175 -161 -175 -176 0 -7 17 7 38 30 52 59 73 48 22 -11 l-40 -47 30
-12 c48 -20 39 -43 -14 -38 -36 2 -46 0 -50 -14 -2 -10 -11 -18 -20 -18 -10 0
-13 6 -10 15 5 13 3 13 -22 0 -16 -8 -54 -49 -85 -92 -56 -75 -139 -225 -139
-251 0 -6 -4 -12 -10 -12 -5 0 -10 -6 -10 -12 -1 -7 -9 -31 -20 -53 -11 -22
-19 -47 -20 -55 0 -9 -6 -24 -13 -35 -28 -41 -87 -274 -87 -345 0 -23 -4 -49
-9 -58 -13 -25 -21 -222 -9 -222 6 0 7 -11 4 -26 -4 -15 -3 -23 2 -20 6 3 12
-4 15 -15 4 -16 2 -19 -10 -15 -14 6 -15 -5 -10 -96 14 -247 114 -559 254
-791 257 -429 698 -747 1188 -856 254 -57 560 -55 827 4 452 101 868 389 1132
784 230 345 342 775 308 1184 -13 157 -11 146 -41 272 -49 209 -145 438 -244
585 -109 161 -274 346 -340 382 -17 9 -19 7 -14 -11 4 -18 2 -19 -13 -11 -28
15 -32 12 -19 -12 11 -23 11 -23 -15 1 -14 14 -26 30 -26 38 0 7 -4 13 -10 13
-5 0 -10 8 -10 17 0 13 6 11 29 -11 20 -19 31 -24 36 -16 16 26 -182 175 -325
245 -52 25 -99 45 -105 45 -11 0 -81 30 -117 50 -10 6 -37 10 -60 11 -33 0
-38 2 -23 9 17 7 16 9 -11 9 -16 1 -35 -4 -40 -9 -10 -10 -68 11 -79 30 -6 9
-114 35 -129 31 -5 -1 -12 3 -15 8 -7 11 -155 31 -227 31 -27 0 -44 -5 -47
-14z m290 -48 c6 -5 14 -5 17 0 12 19 156 -34 156 -57 0 -4 -4 -11 -10 -17
-11 -11 2 -70 16 -67 5 1 15 -4 22 -10 9 -7 16 -7 20 0 8 12 42 13 42 2 0 -33
-129 -40 -175 -9 -16 11 -37 20 -45 20 -8 0 -20 11 -27 25 -13 29 1 34 28 9
11 -10 31 -14 60 -12 l44 3 -32 18 c-18 10 -33 13 -33 8 0 -5 -10 -7 -22 -3
-21 5 -21 6 -2 13 19 7 19 8 -1 9 -11 0 -31 7 -44 14 -23 13 -23 14 -5 24 17
10 17 11 2 12 -27 0 -32 1 -51 11 -10 6 -15 14 -12 19 6 9 31 3 52 -12z m-167
-8 c11 -7 7 -10 -17 -10 -18 0 -33 5 -33 10 0 13 30 13 50 0z m60 -20 c0 -5
-4 -10 -9 -10 -6 0 -13 5 -16 10 -3 6 1 10 9 10 9 0 16 -4 16 -10z m385 -78
c7 -9 40 -16 93 -19 63 -5 85 -10 99 -25 15 -16 15 -21 3 -28 -12 -7 -12 -10
3 -16 9 -3 28 -7 41 -8 13 0 22 -3 20 -5 -2 -2 1 -10 7 -18 8 -9 8 -13 1 -13
-6 0 -14 5 -18 11 -4 8 -10 6 -17 -6 -6 -12 -6 -20 3 -25 7 -4 9 -13 5 -20 -5
-8 5 -23 26 -41 23 -19 30 -32 23 -37 -7 -4 -10 -22 -8 -41 4 -31 2 -33 -21
-29 -14 3 -25 1 -25 -3 0 -18 -18 -8 -23 12 -4 14 -11 20 -21 16 -9 -4 -17 1
-20 11 -3 9 -19 26 -35 37 -17 11 -32 28 -35 40 -4 15 -8 17 -17 8 -9 -9 -6
-18 10 -39 12 -15 19 -30 16 -33 -4 -3 -10 1 -16 9 -8 13 -14 10 -34 -13 -14
-16 -30 -25 -36 -21 -6 3 -43 8 -82 10 -40 2 -85 6 -102 10 -16 3 -44 6 -62 7
-18 1 -38 8 -45 16 -11 11 -9 13 14 9 15 -3 26 -1 25 5 -2 13 41 37 66 37 10
0 15 5 12 10 -4 6 -1 17 5 25 17 20 -4 19 -24 -1 -9 -8 -20 -12 -26 -9 -5 3
-10 1 -10 -5 0 -17 -25 -38 -54 -46 -14 -3 -26 -12 -26 -20 0 -8 -10 -14 -22
-14 -19 0 -20 2 -8 10 13 8 12 10 -2 10 -11 0 -18 8 -18 20 0 11 5 20 12 20 7
0 24 11 39 26 14 14 37 26 50 26 13 1 29 6 36 11 7 5 17 6 23 2 7 -4 9 2 4 18
-5 23 -3 25 16 20 12 -3 24 -12 27 -19 8 -22 53 -18 53 5 0 16 18 31 36 31 2
0 1 -12 -2 -27 -5 -23 -4 -26 7 -15 15 14 59 16 59 3 0 -12 33 -9 42 4 5 6 8
5 8 -2 0 -7 7 -13 15 -13 29 0 15 22 -25 37 -35 14 -38 18 -23 28 14 11 14 13
-8 28 -13 10 -36 17 -52 17 -15 0 -26 4 -23 9 4 5 1 11 -6 13 -6 2 -8 9 -4 16
8 13 36 5 51 -16z m475 -276 c29 -41 41 -69 32 -78 -10 -10 -43 34 -52 67 -3
11 -20 29 -38 40 -17 11 -31 23 -32 27 0 13 74 -33 90 -56z m-840 -68 c19 -9
48 -21 64 -28 20 -8 26 -14 18 -19 -9 -5 -5 -11 13 -19 25 -12 55 -7 55 9 0
13 48 -12 55 -28 3 -11 1 -13 -10 -9 -8 3 -22 9 -30 12 -8 3 -15 1 -15 -6 0
-8 -9 -11 -25 -8 -15 3 -25 1 -24 -6 2 -12 -11 -48 -21 -56 -3 -3 -11 -22 -17
-43 -10 -33 -9 -38 7 -47 10 -6 26 -10 34 -10 9 0 16 -8 16 -17 0 -15 1 -15
13 1 12 17 15 17 29 2 9 -9 23 -16 32 -16 42 0 24 -42 -24 -55 -17 -4 -21 -3
-11 3 10 7 0 12 -37 17 -54 7 -88 -6 -98 -38 -3 -10 -13 -17 -22 -15 -12 3
-27 -13 -48 -49 -16 -28 -47 -65 -68 -82 -20 -16 -38 -33 -38 -38 -1 -4 -10
-17 -20 -27 -10 -11 -18 -26 -18 -33 0 -7 -9 -17 -20 -23 -11 -6 -20 -18 -20
-26 0 -9 -5 -14 -11 -12 -15 5 -69 -42 -69 -59 0 -7 -6 -13 -14 -13 -8 0 -16
-7 -20 -15 -3 -8 -10 -15 -15 -15 -6 0 -8 7 -5 15 4 9 0 15 -10 15 -9 0 -16 3
-16 8 1 14 28 42 41 42 8 0 20 9 27 20 7 11 21 19 33 17 12 -1 24 5 27 13 4
12 3 13 -10 2 -25 -21 -29 10 -9 70 l18 52 11 -47 c12 -47 24 -58 39 -34 10
16 13 37 5 37 -4 0 -8 13 -9 28 -1 21 3 28 16 28 13 0 17 -6 13 -20 -3 -12 -1
-17 5 -13 6 4 10 25 9 47 0 22 2 40 5 40 4 0 10 7 13 16 5 12 2 15 -10 10 -14
-5 -15 -4 -4 9 7 8 16 12 22 9 5 -3 15 0 23 6 8 7 15 9 15 5 0 -4 7 -2 15 5
11 9 12 16 5 26 -8 9 -5 26 11 64 12 28 22 61 23 73 1 15 7 21 18 19 20 -3 32
14 21 31 -4 6 -6 22 -5 34 4 24 -6 32 -42 35 -29 3 -36 28 -8 28 32 0 33 13 5
33 l-28 19 33 -4 c36 -5 40 -1 15 17 -15 11 -10 41 5 33 4 -2 23 -11 42 -20z
m175 12 c3 -5 2 -10 -4 -10 -5 0 -13 5 -16 10 -3 6 -2 10 4 10 5 0 13 -4 16
-10z m225 -15 c0 -8 -4 -15 -10 -15 -5 0 -10 7 -10 15 0 8 5 15 10 15 6 0 10
-7 10 -15z m197 -27 c-3 -8 -6 -5 -6 6 -1 11 2 17 5 13 3 -3 4 -12 1 -19z
m-727 -28 c0 -5 -4 -10 -10 -10 -5 0 -10 5 -10 10 0 6 5 10 10 10 6 0 10 -4
10 -10z m730 -21 c0 -7 8 -18 18 -25 15 -12 14 -13 -13 -11 -34 2 -61 27 -42
39 18 11 37 9 37 -3z m-2090 -13 c0 -3 -4 -8 -10 -11 -5 -3 -10 -1 -10 4 0 6
5 11 10 11 6 0 10 -2 10 -4z m1380 -46 c-8 -5 -19 -10 -25 -10 -5 0 -3 5 5 10
8 5 20 10 25 10 6 0 3 -5 -5 -10z m-60 -15 c0 -8 -7 -15 -15 -15 -8 0 -15 -6
-16 -12 0 -10 -2 -10 -6 0 -3 7 3 20 13 27 24 18 24 18 24 0z m757 -4 c10 -15
7 -23 -17 -50 -25 -27 -60 -42 -60 -25 0 10 52 94 59 94 3 0 11 -8 18 -19z
m-173 -45 c16 6 17 4 6 -16 -10 -18 -9 -24 0 -30 17 -11 5 -40 -16 -40 -11 0
-14 -5 -10 -16 5 -14 4 -15 -9 -4 -8 7 -12 16 -9 21 3 5 -2 23 -10 41 -9 17
-13 34 -10 37 4 3 9 0 11 -6 3 -7 14 -13 26 -13 20 1 20 2 5 11 -10 5 -18 15
-18 22 0 9 3 8 8 -1 5 -7 16 -10 26 -6z m-571 -7 c14 2 18 -3 15 -21 -3 -26
-36 -37 -49 -16 -14 21 -11 50 4 41 6 -4 20 -6 30 -4z m-1363 -27 c0 -5 -9
-18 -20 -30 -24 -25 -25 -32 -6 -32 36 0 14 -60 -37 -100 -15 -12 -27 -27 -27
-35 0 -7 -10 -20 -22 -29 -13 -9 -17 -14 -10 -10 11 5 11 2 0 -15 -7 -12 -16
-21 -19 -21 -12 0 -6 50 7 61 8 6 14 22 14 36 0 13 4 22 9 18 5 -3 17 9 25 27
15 29 11 27 -34 -19 -28 -29 -56 -53 -62 -53 -7 0 -2 9 10 20 23 21 21 45 -5
54 -12 5 -10 12 12 38 17 20 22 33 16 38 -7 4 -2 15 14 30 23 22 31 18 26 -12
0 -5 6 -8 14 -8 8 0 15 7 15 15 0 7 8 19 18 24 21 12 62 14 62 3z m2 -44 c-7
-7 -12 -8 -12 -2 0 14 12 26 19 19 2 -3 -1 -11 -7 -17z m878 -53 c7 -8 8 -15
2 -15 -5 0 -15 7 -22 15 -7 8 -8 15 -2 15 5 0 15 -7 22 -15z m1196 -67 c-19
-26 -20 -20 -5 19 6 15 13 22 16 16 2 -7 -3 -23 -11 -35z m-1716 12 c0 -5 -7
-10 -16 -10 -8 0 -12 5 -9 10 3 6 10 10 16 10 5 0 9 -4 9 -10z m1342 -12 c-7
-7 -12 -8 -12 -2 0 14 12 26 19 19 2 -3 -1 -11 -7 -17z m-1929 -8 c-3 -12 -8
-19 -11 -16 -5 6 5 36 12 36 2 0 2 -9 -1 -20z m349 -2 c-7 -7 -12 -8 -12 -2 0
14 12 26 19 19 2 -3 -1 -11 -7 -17z m2024 -10 c-9 -12 -16 -19 -16 -15 0 11
24 47 28 42 2 -2 -3 -14 -12 -27z m-2071 2 c-3 -5 -10 -10 -16 -10 -5 0 -9 5
-9 10 0 6 7 10 16 10 8 0 12 -4 9 -10z m749 -19 c3 -5 -1 -11 -9 -14 -9 -4
-12 -1 -8 9 6 16 10 17 17 5z m-624 -36 c-7 -9 -15 -13 -18 -10 -3 2 1 11 8
20 7 9 15 13 18 10 3 -2 -1 -11 -8 -20z m750 -6 c0 -6 -7 -8 -16 -5 -10 4 -14
1 -11 -6 2 -7 12 -12 22 -11 15 1 17 -5 11 -43 -5 -41 -17 -61 -61 -108 -11
-12 -20 -23 -21 -26 -4 -26 -22 -52 -28 -42 -4 7 -12 12 -17 12 -6 0 -8 -4 -5
-8 3 -5 -2 -9 -10 -9 -8 0 -13 6 -10 13 3 8 1 16 -3 19 -5 3 -12 -2 -15 -11
-3 -8 -10 -13 -15 -10 -5 4 -21 2 -36 -4 -23 -9 -26 -8 -21 5 4 13 2 14 -14 5
-17 -9 -20 -7 -26 14 -5 23 -7 24 -22 10 -14 -15 -16 -14 -24 7 -5 13 -15 30
-22 39 -8 8 -17 25 -20 36 -5 17 -2 23 15 27 18 5 20 9 11 20 -18 21 11 52 63
67 25 7 48 17 51 21 3 5 15 9 27 9 22 0 22 -1 -3 -20 -19 -14 -22 -22 -14 -30
9 -9 18 -8 35 3 13 9 52 21 86 28 34 7 59 17 56 22 -3 5 4 4 16 -2 11 -7 21
-17 21 -22z m310 6 c-7 -9 -16 -12 -19 -8 -4 4 -10 11 -15 16 -5 4 3 7 19 7
24 0 26 -2 15 -15z m-1550 1 c0 -2 -7 -23 -15 -46 -23 -66 -21 -72 20 -54 19
7 37 14 40 14 9 0 -6 -44 -17 -51 -5 -3 -9 -9 -9 -13 2 -9 -28 -66 -34 -66 -3
0 -3 11 1 25 3 14 2 25 -3 25 -21 0 -58 -61 -54 -87 2 -13 -11 -17 -21 -7 -4
3 3 26 14 52 17 37 19 52 10 74 -8 23 -7 32 9 52 10 13 19 27 19 29 0 17 21
57 30 57 5 0 10 -2 10 -4z m1590 -5 c0 -5 -7 -14 -15 -21 -12 -10 -15 -10 -15
2 0 8 3 18 7 21 9 10 23 9 23 -2z m-1046 -16 c-7 -16 -24 -21 -24 -6 0 8 7 13
27 20 1 1 0 -6 -3 -14z m185 -1 c-12 -15 -11 -16 9 -10 13 5 22 3 22 -3 0 -6
-5 -11 -11 -11 -8 0 -7 -6 2 -17 11 -13 11 -17 1 -20 -26 -9 17 -57 66 -73 26
-8 46 -20 45 -27 -2 -6 9 -21 22 -31 22 -17 24 -24 15 -46 -6 -16 -17 -26 -29
-26 -11 0 -33 -16 -49 -35 -25 -31 -31 -34 -42 -20 -8 9 -21 13 -36 9 -18 -5
-24 -2 -24 10 0 9 -8 16 -20 16 -14 0 -18 5 -13 17 4 11 3 14 -5 9 -7 -4 -12
-15 -12 -24 0 -12 -3 -13 -8 -5 -5 7 -13 9 -22 3 -8 -5 -24 -4 -39 4 -14 7
-32 11 -40 8 -7 -2 -16 0 -20 6 -9 15 -68 25 -76 13 -3 -6 -13 -11 -22 -11
-14 0 -13 3 3 21 19 22 19 22 -5 9 -19 -10 -25 -10 -32 1 -5 9 -11 6 -20 -14
-7 -15 -17 -27 -23 -28 -65 -5 -67 -4 -54 6 7 5 13 19 13 30 0 13 8 21 23 23
28 4 28 18 0 25 l-23 6 23 22 c13 11 26 18 30 14 3 -3 0 -10 -8 -15 -8 -5 -11
-12 -6 -17 4 -4 12 0 17 10 6 9 15 14 22 10 16 -10 57 -10 57 0 0 5 7 7 15 3
13 -5 14 -2 4 16 l-12 22 28 -18 c24 -16 27 -16 22 -3 -4 10 1 20 11 26 14 9
13 10 -10 11 -28 0 -39 22 -18 35 6 3 10 -1 10 -9 0 -23 13 -20 46 11 20 18
39 26 59 25 22 -1 37 6 55 28 27 31 85 45 59 14z m1551 -45 c-8 -14 -15 -18
-22 -11 -6 6 -4 21 8 43 17 31 19 32 22 12 2 -12 -2 -32 -8 -44z m86 4 c-10
-26 -18 -8 -9 23 5 21 8 24 11 11 2 -10 1 -25 -2 -34z m-1832 -8 c-4 -8 -8
-15 -10 -15 -2 0 -4 7 -4 15 0 8 4 15 10 15 5 0 7 -7 4 -15z m1496 -39 c0 -2
-8 -10 -17 -17 -16 -13 -17 -12 -4 4 13 16 21 21 21 13z m98 -27 c-7 -5 -19
-9 -27 -9 -11 0 -11 3 -1 14 6 8 18 12 27 9 12 -5 12 -7 1 -14z m-2058 7 c0
-3 -4 -8 -10 -11 -5 -3 -10 -1 -10 4 0 6 5 11 10 11 6 0 10 -2 10 -4z m2238
-42 c6 -3 -11 -34 -19 -34 -4 0 -6 6 -3 13 3 8 -2 20 -11 27 -8 7 -15 17 -15
23 0 5 10 2 23 -9 12 -10 23 -19 25 -20z m-58 16 c0 -5 -4 -10 -10 -10 -5 0
-10 5 -10 10 0 6 5 10 10 10 6 0 10 -4 10 -10z m-950 -40 c-18 -12 -43 -13
-37 -2 2 4 7 16 11 26 6 18 8 19 24 2 15 -15 15 -18 2 -26z m648 20 c-7 -10
-14 -17 -17 -15 -4 4 18 35 25 35 2 0 -1 -9 -8 -20z m-1701 -8 c-10 -10 -17
-26 -17 -35 0 -9 -7 -17 -15 -17 -8 0 -15 3 -15 8 0 9 48 62 57 62 3 0 -1 -8
-10 -18z m2570 -7 c0 -11 -4 -12 -14 -4 -7 6 -13 15 -13 20 0 5 6 6 13 3 8 -3
14 -11 14 -19z m-437 -6 c0 -6 -4 -7 -10 -4 -5 3 -10 11 -10 16 0 6 5 7 10 4
6 -3 10 -11 10 -16z m-266 -22 c-9 -24 -23 -11 -17 14 3 12 9 17 15 11 5 -5 6
-16 2 -25z m-2054 19 c0 -3 -4 -8 -10 -11 -5 -3 -10 -1 -10 4 0 6 5 11 10 11
6 0 10 -2 10 -4z m260 -14 c0 -4 -14 -13 -31 -19 -31 -12 -31 -12 -14 7 18 20
45 27 45 12z m1726 -7 c-21 -16 -32 -13 -21 4 3 6 14 11 23 11 15 -1 15 -2 -2
-15z m764 -11 c0 -8 -4 -12 -10 -9 -5 3 -10 10 -10 16 0 5 5 9 10 9 6 0 10 -7
10 -16z m-20 -29 c0 -8 -4 -15 -10 -15 -5 0 -10 7 -10 15 0 8 5 15 10 15 6 0
10 -7 10 -15z m-390 1 c0 -2 -7 -7 -16 -10 -8 -3 -12 -2 -9 4 6 10 25 14 25 6z
m354 -51 c-11 -28 -20 -15 -16 22 4 33 6 35 13 15 5 -12 6 -29 3 -37z m-1370
21 c-7 -19 -28 -26 -45 -16 -10 7 -8 11 11 19 35 14 40 13 34 -3z m-1519 -44
c-6 -23 -8 -24 -16 -10 -7 12 -5 24 3 38 16 24 23 9 13 -28z m1133 31 c9 -14
14 -15 41 -3 29 12 34 11 56 -10 17 -16 28 -20 37 -13 19 15 88 24 88 11 0 -6
10 -8 25 -4 20 5 23 3 18 -11 -6 -16 -5 -16 10 -5 9 8 22 12 29 9 9 -4 9 -6
-2 -6 -8 -1 -26 -10 -40 -21 l-25 -20 32 9 c24 7 32 6 30 -2 -3 -16 -25 -25
-59 -26 -16 -1 -28 -7 -28 -13 0 -8 -5 -6 -11 4 -9 16 -12 16 -42 -2 -47 -29
-72 -26 -87 10 -18 42 -61 39 -68 -5 -2 -11 -8 -24 -14 -30 -8 -7 -9 -5 -5 8
4 9 2 17 -3 17 -14 0 -70 -51 -65 -60 9 -15 -20 -26 -50 -20 l-30 6 40 25 c22
13 43 23 46 22 11 -4 27 65 18 78 -6 11 -14 8 -33 -10 -14 -14 -29 -22 -32
-18 -13 13 18 64 49 80 42 21 64 21 75 0z m432 3 c0 -8 -7 -16 -15 -20 -12 -4
-13 -2 -2 14 14 24 17 25 17 6z m1372 -21 c6 -27 -1 -32 -19 -14 -12 12 -6 52
7 44 4 -3 10 -16 12 -30z m-2508 -4 c-7 -8 -35 9 -29 19 4 6 11 5 20 -3 7 -6
11 -14 9 -16z m1726 21 c0 -4 -10 -13 -22 -21 -23 -14 -23 -14 -4 8 20 22 26
25 26 13z m430 -12 c0 -5 -2 -10 -4 -10 -3 0 -8 5 -11 10 -3 6 -1 10 4 10 6 0
11 -4 11 -10z m-2040 -15 c-14 -17 -40 -20 -40 -6 0 5 10 12 23 14 12 2 24 5
26 6 2 0 -2 -6 -9 -14z m964 -9 c-6 -15 -54 -40 -62 -32 -12 13 9 37 27 31 11
-3 22 -1 26 5 9 15 15 12 9 -4z m-692 -18 c-7 -7 -12 -8 -12 -2 0 14 12 26 19
19 2 -3 -1 -11 -7 -17z m-437 1 c10 -16 -3 -23 -18 -11 -8 7 -16 9 -19 6 -3
-3 -9 -1 -13 5 -4 7 4 11 19 11 14 0 28 -5 31 -11z m2550 -48 c0 -22 -3 -37
-6 -35 -4 2 -9 -2 -12 -8 -3 -7 -4 5 -3 27 1 33 5 44 21 55 0 0 0 -18 0 -39z
m-2147 -9 c17 -2 32 -8 32 -13 0 -4 16 -11 36 -15 25 -5 34 -11 32 -23 -2 -8
-12 -17 -22 -19 -10 -2 -16 0 -12 6 3 5 -5 7 -18 5 -12 -3 -29 2 -37 9 -8 8
-19 13 -26 11 -6 -2 -14 1 -18 6 -3 6 -14 11 -25 11 -13 0 -17 5 -13 21 4 14
10 18 22 13 9 -4 31 -9 49 -12z m405 11 c-7 -2 -19 -2 -25 0 -7 3 -2 5 12 5
14 0 19 -2 13 -5z m-233 -37 c0 -2 -13 -3 -30 -4 -19 0 -30 4 -30 13 0 11 6
12 30 4 17 -6 30 -12 30 -13z m420 -1 c-7 -8 -16 -15 -21 -15 -5 0 -1 9 8 20
9 11 19 17 21 15 3 -3 -1 -11 -8 -20z m-1194 -112 c-10 -10 -19 5 -10 18 6 11
8 11 12 0 2 -7 1 -15 -2 -18z m60 -100 c-10 -10 -19 5 -10 18 6 11 8 11 12 0
2 -7 1 -15 -2 -18z m148 -68 c-4 -8 -8 -15 -10 -15 -2 0 -4 7 -4 15 0 8 4 15
10 15 5 0 7 -7 4 -15z m-21 -56 c-4 -13 3 -30 22 -49 21 -22 24 -30 13 -36 -7
-5 -13 -15 -13 -23 0 -8 -6 -16 -13 -19 -8 -2 -10 2 -5 15 3 10 3 15 -2 11 -4
-4 -14 0 -21 10 -12 16 -13 16 -14 0 0 -24 -21 -68 -33 -68 -5 0 -6 7 -3 16 4
12 2 15 -9 10 -22 -8 -47 36 -39 68 5 21 9 24 20 15 8 -6 15 -9 15 -5 1 3 2
10 3 14 2 16 34 42 51 42 9 0 13 5 10 10 -3 6 0 10 8 10 10 0 13 -7 10 -21z
m-143 -29 c0 -13 -12 -12 -32 4 -10 7 -15 16 -12 19 9 8 44 -11 44 -23z m1915
-62 c11 -24 21 -45 22 -48 2 -3 -8 -10 -22 -17 -14 -6 -25 -7 -25 -2 0 5 5 9
10 9 11 0 13 30 4 54 -3 9 -10 13 -15 10 -5 -3 -9 4 -9 15 0 33 14 25 35 -21z
m-1713 -59 c-2 -32 0 -40 7 -29 9 12 11 11 11 -8 0 -12 7 -25 15 -28 32 -13
15 -39 -21 -35 -15 2 -26 -27 -17 -42 4 -7 -1 -6 -10 2 -18 14 -24 47 -7 36 6
-3 10 -2 10 4 0 17 -12 41 -21 41 -4 0 -5 -7 -2 -17 4 -11 3 -14 -5 -9 -7 4
-12 2 -12 -6 0 -8 -4 -7 -10 4 -13 22 6 65 32 71 17 5 19 11 13 37 -5 25 -4
31 6 28 9 -3 13 -19 11 -49z m-72 -39 c0 -5 -4 -10 -10 -10 -5 0 -10 5 -10 10
0 6 5 10 10 10 6 0 10 -4 10 -10z m795 -10 c10 -11 24 -20 32 -20 15 0 18 -26
4 -34 -5 -3 -14 1 -21 9 -7 8 -16 12 -21 9 -12 -7 -11 -64 1 -64 6 0 10 -4 10
-9 0 -5 -9 -7 -20 -4 -11 3 -20 10 -20 15 0 6 -10 20 -22 33 -23 24 -61 23
-51 -1 3 -8 -1 -14 -11 -14 -9 0 -16 8 -16 20 0 11 5 20 11 20 5 0 7 5 3 11
-4 8 -1 8 12 1 14 -7 23 -6 32 4 7 8 8 14 2 14 -5 0 -10 6 -10 13 0 21 65 19
85 -3z m-155 1 c0 -5 -7 -11 -15 -15 -15 -5 -20 5 -8 17 9 10 23 9 23 -2z
m2086 -48 c-10 -10 -19 5 -10 18 6 11 8 11 12 0 2 -7 1 -15 -2 -18z m-2587
-22 c-15 -5 -22 6 -14 19 6 9 10 9 16 -1 5 -8 4 -15 -2 -18z m718 -3 c-3 -8
-6 -5 -6 6 -1 11 2 17 5 13 3 -3 4 -12 1 -19z m1923 2 c0 -5 -5 -10 -11 -10
-5 0 -7 5 -4 10 3 6 8 10 11 10 2 0 4 -4 4 -10z m34 -40 c-6 -5 -24 21 -24 34
0 6 6 1 14 -10 8 -10 12 -21 10 -24z m-3098 4 c-3 -9 -6 -25 -6 -37 0 -13 -4
-17 -9 -11 -12 11 -2 64 11 64 6 0 7 -7 4 -16z m1904 -5 c-7 -11 -14 -19 -16
-16 -7 7 7 37 17 37 6 0 5 -9 -1 -21z m-994 -26 c-11 -11 -19 6 -11 24 8 17 8
17 12 0 3 -10 2 -21 -1 -24z m2129 27 c-3 -5 -10 -10 -16 -10 -5 0 -9 5 -9 10
0 6 7 10 16 10 8 0 12 -4 9 -10z m-2725 -19 c0 -6 -4 -13 -10 -16 -5 -3 -10 1
-10 9 0 9 5 16 10 16 6 0 10 -4 10 -9z m650 -1 c0 -13 36 -13 61 1 15 8 24 7
36 -3 9 -7 24 -12 33 -10 16 3 15 -3 -6 -45 -13 -26 -24 -55 -24 -64 0 -39
-66 -33 -76 7 -4 14 -13 24 -24 24 -10 0 -20 7 -24 15 -7 18 15 20 32 3 9 -9
12 -9 12 0 0 7 7 12 15 12 8 0 15 5 15 10 0 9 -15 14 -34 11 -9 -2 -35 29 -36
42 0 4 5 7 10 7 6 0 10 -4 10 -10z m191 -28 c-6 -2 -11 -10 -11 -18 0 -9 -5
-12 -10 -9 -8 5 -7 11 1 21 6 8 8 14 5 14 -4 0 -1 6 6 14 11 12 14 12 17 -2 2
-9 -2 -18 -8 -20z m-941 3 c0 -8 -4 -15 -10 -15 -5 0 -10 7 -10 15 0 8 5 15
10 15 6 0 10 -7 10 -15z m128 -54 c12 -14 13 -13 9 7 -4 17 -1 22 14 22 10 0
19 -4 19 -10 0 -5 -4 -10 -10 -10 -5 0 -10 -9 -10 -21 0 -15 -4 -19 -16 -15
-9 3 -21 6 -28 6 -7 0 -18 12 -25 26 -10 24 -10 25 11 18 13 -4 29 -14 36 -23z
m90 7 c16 -16 15 -28 -3 -28 -8 0 -15 2 -15 4 0 2 -3 11 -6 20 -7 19 7 21 24
4z m817 -18 c17 -18 16 -19 -10 -26 -34 -8 -54 9 -35 31 16 20 23 19 45 -5z
m-1147 -12 c9 -9 12 -9 12 0 0 7 5 12 10 12 6 0 10 -6 10 -14 0 -11 -8 -13
-27 -10 -32 6 -56 24 -32 24 8 0 20 -5 27 -12z m1204 -30 c-16 -16 -37 4 -28
28 6 16 8 16 23 1 13 -13 15 -19 5 -29z m-178 -3 c22 -17 21 -20 -16 -29 -29
-7 -43 6 -34 29 7 19 25 19 50 0z m-924 -45 c0 -21 -18 -17 -28 6 -11 23 -10
24 8 14 11 -6 20 -15 20 -20z m299 -25 c3 -17 2 -17 -13 -3 -19 20 -21 31 -3
26 6 -3 14 -13 16 -23z m-249 -7 c0 -6 -6 -5 -15 2 -8 7 -15 14 -15 16 0 2 7
1 15 -2 8 -4 15 -11 15 -16z m25 12 c3 -5 1 -10 -4 -10 -6 0 -11 5 -11 10 0 6
2 10 4 10 3 0 8 -4 11 -10z m55 -40 c0 -5 -4 -10 -10 -10 -5 0 -10 5 -10 10 0
6 5 10 10 10 6 0 10 -4 10 -10z m200 -20 c-6 -11 -17 -20 -25 -20 -19 0 -19 5
1 24 22 23 37 20 24 -4z m140 10 c0 -5 -2 -10 -4 -10 -3 0 -8 5 -11 10 -3 6
-1 10 4 10 6 0 11 -4 11 -10z m70 0 c0 -5 -4 -10 -10 -10 -5 0 -10 5 -10 10 0
6 5 10 10 10 6 0 10 -4 10 -10z m110 -10 c0 -5 -4 -10 -9 -10 -6 0 -13 5 -16
10 -3 6 1 10 9 10 9 0 16 -4 16 -10z m-80 -19 c0 -12 -20 -25 -27 -18 -7 7 6
27 18 27 5 0 9 -4 9 -9z m1171 0 c8 12 12 11 25 -6 10 -13 18 -16 21 -8 3 7
13 9 33 3 15 -4 32 -4 36 0 5 5 21 6 36 3 25 -5 26 -7 16 -27 -7 -11 -11 -27
-10 -33 2 -8 -8 -13 -23 -13 -15 0 -42 -12 -61 -26 -19 -15 -34 -23 -34 -18 0
4 -5 3 -12 -4 -13 -13 -49 -15 -97 -6 l-32 7 22 23 c20 21 25 22 38 10 13 -12
18 -12 28 -1 9 10 9 17 -2 31 -7 11 -17 15 -21 11 -5 -4 -2 -13 6 -18 11 -8 8
-9 -12 -5 -16 4 -38 0 -55 -10 -22 -13 -34 -14 -57 -5 -28 11 -28 12 -11 31
19 21 50 26 60 10 8 -14 53 17 60 41 6 17 9 18 22 8 12 -10 16 -10 24 2z
m-965 -17 c-4 -9 -2 -22 3 -28 5 -6 5 -20 0 -31 -4 -11 -8 -14 -8 -6 -1 8 -9
20 -18 27 -11 8 -13 13 -5 14 6 0 12 9 12 20 0 11 5 20 11 20 6 0 8 -7 5 -16z
m-319 -19 c-4 -8 -16 -15 -27 -15 -12 0 -18 5 -15 10 4 6 10 8 15 5 4 -3 11 2
14 11 4 9 9 14 12 11 4 -3 4 -13 1 -22z m118 -15 c3 -5 -1 -10 -10 -10 -9 0
-13 5 -10 10 3 6 8 10 10 10 2 0 7 -4 10 -10z m55 0 c0 -5 -4 -10 -10 -10 -5
0 -10 5 -10 10 0 6 5 10 10 10 6 0 10 -4 10 -10z m1355 -9 c-8 -13 -35 -15
-35 -2 0 5 8 11 18 13 21 5 26 2 17 -11z m-1445 -1 c0 -5 -2 -10 -4 -10 -3 0
-8 5 -11 10 -3 6 -1 10 4 10 6 0 11 -4 11 -10z m1386 -36 c-3 -8 -1 -14 4 -14
25 0 6 -21 -36 -40 -73 -34 -84 -22 -28 32 45 44 72 54 60 22z m132 -24 c-9
-13 -14 -16 -20 -7 -8 13 10 39 23 31 5 -3 3 -14 -3 -24z m-1403 4 c39 -15 46
-44 11 -44 -20 0 -23 4 -18 23 5 21 4 21 -23 -5 -15 -16 -32 -28 -36 -28 -5 0
-9 -6 -9 -14 0 -19 -53 -30 -79 -17 -14 8 -20 8 -23 -1 -2 -6 -9 -8 -16 -4
-18 11 -2 38 20 33 15 -4 23 2 32 25 12 27 14 28 18 10 3 -12 1 -23 -6 -25 -7
-3 -4 -11 8 -23 17 -17 18 -17 13 -1 -4 9 -2 17 3 17 11 0 9 41 -3 58 -8 10 1
11 39 8 27 -2 58 -7 69 -12z m973 -13 c3 -8 -1 -12 -9 -9 -7 2 -15 10 -17 17
-3 8 1 12 9 9 7 -2 15 -10 17 -17z m378 -10 c-9 -13 -46 -15 -46 -1 0 14 34
30 44 20 4 -4 5 -13 2 -19z m-1966 -24 c0 -20 -24 1 -27 23 -3 24 -3 24 11 5
9 -11 16 -24 16 -28z m1510 33 c0 -5 -7 -6 -17 -3 -10 4 -14 2 -10 -4 4 -6 0
-14 -9 -17 -22 -8 -56 3 -48 15 3 5 9 7 13 5 4 -3 13 -1 21 5 20 12 50 12 50
-1z m-1208 -84 c-6 -20 -6 -20 -10 -1 -2 11 -10 27 -18 36 -8 9 -11 19 -7 23
12 12 41 -36 35 -58z m-252 32 c0 -6 -6 -5 -15 2 -8 7 -15 14 -15 16 0 2 7 1
15 -2 8 -4 15 -11 15 -16z m344 -22 c12 5 16 0 16 -17 0 -18 2 -21 9 -10 7 11
13 12 23 3 8 -6 24 -9 36 -5 18 4 22 1 22 -16 0 -23 7 -26 29 -12 9 6 19 4 28
-5 8 -8 19 -12 24 -9 5 4 9 1 9 -6 0 -7 2 -10 5 -7 9 8 -6 38 -16 32 -5 -3 -6
1 -3 9 5 14 50 17 70 4 6 -3 16 -2 23 2 25 16 64 -4 79 -38 12 -30 11 -33 -2
-28 -9 4 -16 2 -16 -3 0 -14 27 -12 58 4 25 13 30 12 57 -12 19 -16 25 -27 17
-30 -17 -5 -4 -22 18 -22 11 0 24 -9 30 -20 9 -16 7 -22 -7 -27 -10 -4 -27
-15 -37 -25 -11 -10 -22 -16 -25 -13 -2 3 3 11 13 18 11 8 15 19 10 31 -6 17
-8 17 -16 2 -6 -11 -16 -15 -29 -11 -11 4 -19 2 -19 -4 0 -6 5 -11 10 -11 6 0
10 -5 10 -11 0 -12 -61 -8 -92 5 -13 6 -20 2 -27 -17 -10 -25 -10 -25 -53 -11
-24 8 -53 26 -65 40 -20 21 -23 22 -23 7 0 -13 -9 -8 -36 22 -19 22 -40 40
-47 41 -35 2 -77 18 -77 28 0 6 -14 20 -31 30 -18 11 -28 23 -25 32 3 8 1 14
-4 14 -13 0 -17 33 -6 52 9 15 12 16 27 2 9 -8 24 -12 33 -8z m-314 10 c0 -2
-7 -7 -16 -10 -8 -3 -12 -2 -9 4 6 10 25 14 25 6z m-80 -49 c0 -5 -13 1 -30
13 -16 12 -30 24 -30 26 0 3 14 -3 30 -13 17 -9 30 -21 30 -26z m260 33 c0 -5
-5 -10 -11 -10 -5 0 -7 5 -4 10 3 6 8 10 11 10 2 0 4 -4 4 -10z m-45 -9 c3 -5
1 -12 -5 -16 -5 -3 -10 1 -10 9 0 18 6 21 15 7z m-55 -51 c0 -5 -5 -10 -11
-10 -5 0 -7 5 -4 10 3 6 8 10 11 10 2 0 4 -4 4 -10z m130 -11 c0 -6 -6 -9 -14
-6 -7 3 -19 0 -25 -6 -8 -8 -11 -7 -11 6 0 11 8 17 25 17 14 0 25 -5 25 -11z
m490 1 c0 -5 -4 -10 -10 -10 -5 0 -10 5 -10 10 0 6 5 10 10 10 6 0 10 -4 10
-10z m-553 -25 c4 -4 3 -5 -4 -2 -6 4 -13 2 -15 -5 -2 -6 -14 -12 -26 -13 -20
-2 -21 0 -6 16 16 18 37 19 51 4z m33 -15 c0 -5 -2 -10 -4 -10 -3 0 -8 5 -11
10 -3 6 -1 10 4 10 6 0 11 -4 11 -10z m-89 -62 c11 -21 11 -22 -4 -9 -10 7
-17 17 -17 22 0 15 9 10 21 -13z m-104 -53 c14 -32 5 -32 -26 0 -21 23 -21 25
-5 25 11 0 24 -11 31 -25z m138 -67 c-19 -11 -35 -2 -35 21 0 29 14 34 33 10
16 -20 16 -24 2 -31z m64 -42 c10 -12 8 -13 -8 -9 -12 3 -21 9 -21 14 0 14 16
11 29 -5z m85 -52 c3 -8 2 -12 -4 -9 -6 3 -10 10 -10 16 0 14 7 11 14 -7z
m311 -254 c3 -5 -1 -10 -9 -10 -9 0 -16 5 -16 10 0 6 4 10 9 10 6 0 13 -4 16
-10z"/>
<path d="M2300 3670 c0 -6 11 -8 28 -4 39 10 40 14 4 14 -18 0 -32 -5 -32 -10z"/>
<path d="M2390 3419 c0 -5 5 -7 10 -4 6 3 10 8 10 11 0 2 -4 4 -10 4 -5 0 -10
-5 -10 -11z"/>
<path d="M2512 3363 c-6 -2 -10 -9 -6 -14 8 -14 21 -11 28 6 6 15 1 17 -22 8z"/>
<path d="M2150 3216 c0 -2 9 -6 20 -9 11 -3 18 -1 14 4 -5 9 -34 13 -34 5z"/>
<path d="M2148 3183 c6 -2 18 -2 25 0 6 3 1 5 -13 5 -14 0 -19 -2 -12 -5z"/>
<path d="M2170 3050 c0 -5 5 -10 10 -10 6 0 10 5 10 10 0 6 -4 10 -10 10 -5 0
-10 -4 -10 -10z"/>
<path d="M579 2993 c-13 -16 -12 -17 4 -4 9 7 17 15 17 17 0 8 -8 3 -21 -13z"/>
<path d="M500 2889 c0 -5 5 -7 10 -4 6 3 10 8 10 11 0 2 -4 4 -10 4 -5 0 -10
-5 -10 -11z"/>
<path d="M1460 2410 c0 -5 5 -10 11 -10 5 0 7 5 4 10 -3 6 -8 10 -11 10 -2 0
-4 -4 -4 -10z"/>
<path d="M480 1914 c0 -17 22 -14 28 4 2 7 -3 12 -12 12 -9 0 -16 -7 -16 -16z"/>
<path d="M1314 1644 c3 -9 6 -20 6 -25 0 -5 7 -9 15 -9 18 0 18 5 5 31 -13 23
-35 26 -26 3z"/>
<path d="M2355 1350 c-3 -5 -1 -10 4 -10 6 0 11 5 11 10 0 6 -2 10 -4 10 -3 0
-8 -4 -11 -10z"/>
<path d="M892 1150 c2 -14 14 -31 28 -38 21 -11 26 -11 37 4 16 21 8 34 -21
34 -12 0 -28 6 -35 13 -10 10 -12 7 -9 -13z"/>
<path d="M1194 1123 c-14 -10 -14 -13 -3 -13 8 0 25 -20 37 -45 23 -48 46 -64
69 -49 22 13 12 29 -17 27 -14 -1 -20 0 -13 3 9 4 7 11 -7 26 -14 15 -17 26
-10 38 8 14 5 19 -14 22 -13 3 -32 -1 -42 -9z"/>
<path d="M1164 1074 c3 -9 6 -20 6 -25 0 -21 16 -7 18 16 1 17 -3 25 -14 25
-11 0 -14 -5 -10 -16z"/>
<path d="M1333 3634 c-22 -9 -33 -10 -33 -3 0 26 -25 -1 -27 -30 -3 -30 -2
-31 20 -20 12 7 27 18 32 25 6 7 29 18 53 24 23 6 42 13 42 15 0 10 -56 3 -87
-11z"/>
<path d="M1750 3623 c-25 -8 -51 -20 -57 -25 -17 -14 -86 -1 -77 14 4 7 3 8
-4 4 -18 -11 -14 -26 7 -26 11 0 23 -4 26 -10 10 -17 -63 -11 -98 7 -42 22
-93 27 -100 10 -3 -9 7 -13 35 -13 22 -1 44 -7 48 -13 4 -7 11 -11 16 -10 21
6 82 -13 88 -26 3 -9 19 -15 41 -15 43 0 44 -13 4 -50 l-32 -29 28 -24 29 -24
-28 -18 c-26 -17 -27 -17 -40 0 -10 14 -15 15 -21 6 -4 -7 -2 -18 4 -24 13
-13 14 -27 2 -46 -8 -12 -12 -13 -25 -1 -14 11 -16 10 -10 -4 4 -11 1 -16 -12
-16 -24 1 -47 18 -63 48 -7 14 -21 22 -37 22 -41 0 -23 22 33 39 64 20 66 23
52 54 -17 37 -42 39 -70 7 -14 -14 -38 -33 -54 -41 -21 -10 -30 -22 -30 -38 0
-14 -6 -26 -13 -29 -6 -2 -12 1 -12 7 0 6 -5 11 -11 11 -6 0 -8 -9 -4 -20 5
-16 2 -20 -14 -20 -12 0 -21 6 -21 16 0 11 -6 13 -20 9 -10 -3 -28 -1 -39 5
-16 8 -31 5 -72 -18 -29 -16 -56 -35 -59 -43 -4 -8 -12 -24 -19 -36 -9 -18 -8
-23 2 -23 7 0 21 -18 30 -39 10 -22 26 -41 38 -44 20 -5 20 -7 6 -27 -9 -12
-13 -29 -10 -38 4 -10 2 -13 -5 -8 -8 5 -12 -2 -12 -19 0 -42 31 -27 59 28 14
29 30 47 41 47 31 0 71 40 68 68 -2 17 6 34 22 51 14 14 33 37 42 51 13 20 19
23 29 13 7 -7 21 -13 30 -13 25 0 49 -42 37 -64 -8 -13 -6 -22 6 -34 14 -15
18 -14 47 7 17 12 32 21 33 19 8 -10 26 -74 26 -94 0 -22 7 -32 48 -66 19 -15
21 -15 27 0 3 9 0 19 -9 24 -8 5 -20 33 -26 64 -10 49 -10 58 6 77 38 45 65
68 74 62 5 -3 18 0 29 6 16 11 18 21 14 61 l-5 48 31 -6 c20 -4 31 -3 31 5 0
6 7 11 15 11 8 0 15 4 15 9 0 5 -10 7 -21 4 -18 -5 -20 -3 -14 17 7 22 6 22
-51 17 -49 -5 -53 -4 -26 4 18 5 30 14 27 18 -3 5 2 11 10 15 8 3 19 -2 24
-12 9 -16 10 -16 16 0 10 26 1 53 -18 52 -9 -1 -17 4 -17 12 0 7 -8 11 -20 9
-23 -4 -32 7 -24 29 4 10 18 16 35 16 16 0 29 5 29 10 0 13 -6 12 -60 -7z m0
-108 c-7 -9 -15 -13 -19 -10 -3 3 1 10 9 15 21 14 24 12 10 -5z m-200 -74 c0
-5 -7 -11 -15 -15 -15 -5 -20 5 -8 17 9 10 23 9 23 -2z m-220 -160 c-11 -21
-30 -37 -30 -25 0 8 30 44 37 44 2 0 -1 -9 -7 -19z m-45 -111 c-3 -5 -11 -10
-16 -10 -6 0 -7 5 -4 10 3 6 11 10 16 10 6 0 7 -4 4 -10z"/>
<path d="M1451 3527 c-20 -22 -21 -57 -1 -57 12 0 30 26 23 33 -3 4 2 16 12
27 27 30 -5 27 -34 -3z"/>
<path d="M1140 3525 l-25 -14 28 -1 c17 0 27 5 27 15 0 18 1 18 -30 0z"/>
<path d="M2140 3530 c0 -5 5 -10 10 -10 6 0 10 5 10 10 0 6 -4 10 -10 10 -5 0
-10 -4 -10 -10z"/>
<path d="M1248 3523 c7 -3 16 -2 19 1 4 3 -2 6 -13 5 -11 0 -14 -3 -6 -6z"/>
<path d="M927 3415 c-20 -28 -73 -59 -86 -51 -4 3 -19 -6 -32 -21 l-24 -25 24
7 c18 6 22 4 15 -6 -7 -12 -5 -12 9 0 9 7 14 17 11 22 -3 5 -2 9 3 8 4 -1 21
3 36 9 16 7 35 12 43 12 8 0 14 10 14 25 0 14 5 25 10 25 6 0 10 5 10 10 0 17
-14 10 -33 -15z"/>
<path d="M1043 3432 c-24 -4 -32 -22 -10 -22 15 0 43 18 37 22 -3 2 -15 2 -27
0z"/>
<path d="M936 3174 c-9 -8 -16 -25 -16 -37 0 -22 1 -21 20 3 18 23 26 50 16
50 -3 0 -12 -7 -20 -16z"/>
<path d="M1664 3159 c-3 -6 -1 -16 5 -22 8 -8 11 -5 11 11 0 24 -5 28 -16 11z"/>
<path d="M1847 3131 c-3 -12 -2 -23 3 -26 12 -7 22 27 12 37 -6 6 -12 1 -15
-11z"/>
<path d="M1780 3119 c0 -19 -1 -19 -16 -5 -8 9 -18 16 -21 16 -4 0 -3 -3 0 -7
4 -3 0 -14 -9 -24 -22 -24 -2 -33 40 -18 39 14 58 59 25 59 -13 0 -19 -7 -19
-21z"/>
<path d="M905 3101 c-3 -5 -1 -12 5 -16 5 -3 10 1 10 9 0 18 -6 21 -15 7z"/>
<path d="M995 3030 c-3 -5 -2 -10 4 -10 5 0 13 5 16 10 3 6 2 10 -4 10 -5 0
-13 -4 -16 -10z"/>
<path d="M1251 2891 c-9 -16 -8 -18 9 -14 21 6 26 18 11 28 -6 3 -15 -3 -20
-14z"/>
</g>
</svg>
